<svg width="22" height="24" viewBox="0 0 22 24" fill="none" xmlns="http://www.w3.org/2000/svg">
<path d="M20.5 6.5C20.4717 6.10449 20.4786 5.43262 20.036 5.43262H16.5415V4.25977C16.5415 1.91113 14.0551 0 10.9996 0C7.94411 0 5.45766 1.91113 5.45766 4.25977V5.43262H2C1.55743 5.43262 1.52834 6.10449 1.5 6.5L0.19043 23.2058C0.19043 23.5924 0.777066 24 0.777066 24H21.1619C21.393 24 21.6143 23.9141 21.7724 23.7637C21.9304 23.6123 22.0122 23.4102 21.998 23.2031L20.5 6.5ZM7.13201 4.25977C7.13201 2.73828 8.8674 1.5 10.9996 1.5C13.1318 1.5 14.8672 2.73828 14.8672 4.25977V5.43262H7.13201V4.25977ZM5.45766 6.93262V8.56152C5.45766 8.97559 5.83264 9.31152 6.29483 9.31152C6.75702 9.31152 7.13201 8.97559 7.13201 8.56152V6.93262H14.8672V8.56152C14.8672 8.97559 15.2421 9.31152 15.7043 9.31152C16.1665 9.31152 16.5415 8.97559 16.5415 8.56152V6.93262H19L20.036 18.333H10.9996L2 18.5L3 6.93262H5.45766ZM1.72783 22.5L2 18.5L10.9996 18.333H20.036L20.2713 22.5H1.72783Z" fill="white"/>
</svg>
